<?xml version="1.0" encoding="utf-8"?>
<svg viewBox="440.1934 238.5462 20 16" xmlns="http://www.w3.org/2000/svg">
  <path fill-rule="evenodd" clip-rule="evenodd" d="M11.25 14.0562V10.0562H12.75V14.0562H11.25Z" style="fill: rgb(161, 108, 161); stroke-width: 0px; stroke-miterlimit: 1;" transform="matrix(1.25, 0, 0, 1, 435.1933898925781, 234.54623413085938)"/>
  <path d="M11 7H13V9H11V7Z" style="fill: rgb(161, 108, 161); stroke-width: 0px; stroke-miterlimit: 1;" transform="matrix(1.25, 0, 0, 1, 435.1933898925781, 234.54623413085938)"/>
  <path fill-rule="evenodd" clip-rule="evenodd" d="M 20 4 L 4 4 L 4 16.004 L 8.004 16.004 L 10.939 18.939 L 12 20 L 13.061 18.939 L 15.996 16.004 L 20 16.004 L 20 4 Z M 4.779 5.083 L 4.766 14.895 L 8.626 14.904 L 12 18.296 L 15.374 14.921 L 19.174 14.902 L 19.174 5.097 L 4.779 5.083 Z" style="fill: rgb(161, 108, 161); stroke-width: 0px; stroke-miterlimit: 1;" transform="matrix(1.25, 0, 0, 1, 435.1933898925781, 234.54623413085938)"/>
</svg>